<?xml version="1.0" encoding="UTF-8"?>
<!DOCTYPE svg PUBLIC "-//W3C//DTD SVG 1.1//EN" "http://www.w3.org/Graphics/SVG/1.1/DTD/svg11.dtd">
<!-- Creator: CorelDRAW -->
<svg xmlns="http://www.w3.org/2000/svg" xml:space="preserve" width="2048px" height="2048px" style="shape-rendering:geometricPrecision; text-rendering:geometricPrecision; image-rendering:optimizeQuality; fill-rule:evenodd; clip-rule:evenodd"
viewBox="0 0 2048 2048"
 xmlns:xlink="http://www.w3.org/1999/xlink">
 <defs>
  <style type="text/css">
   <![CDATA[
    .fil2 {fill:none}
    .fil0 {fill:#444444;fill-rule:nonzero}
    .fil1 {fill:#7E7E7E;fill-rule:nonzero}
   ]]>
  </style>
 </defs>
 <g id="Layer_x0020_1">
  <metadata id="CorelCorpID_0Corel-Layer"/>
  <g id="_310007800">
   <polygon id="_310008136" class="fil0" points="255.999,883.765 473.561,883.765 493.754,883.765 502.796,902.022 535.037,967.118 612.316,909.21 650.571,880.544 663.252,926.7 744.06,1220.81 832.781,716.729 863.666,716.051 896.738,715.326 940.459,913.352 1036.19,893.298 1053.5,889.672 1065.93,902.105 1105.74,941.915 1130.7,916.958 1140.27,907.383 1153.8,907.383 1338.27,907.383 1338.27,972.746 1167.34,972.746 1128.85,1011.23 1105.74,1034.34 1082.63,1011.23 1032.15,960.752 922.261,983.776 890.787,990.369 883.835,958.882 868.613,889.938 783.262,1374.88 719.688,1377.81 613.125,989.962 542.731,1042.71 511.362,1066.22 493.965,1031.09 453.369,949.128 255.999,949.128 "/>
   <path id="_310007824" class="fil1" d="M1530.67 725.757c7.93701,-10.3051 16.4693,-19.2378 25.9666,-26.8358 23.9445,-19.1551 51.8433,-28.7339 88.2449,-28.7339 40.6051,0 77.3859,16.4776 104.014,43.1055 26.6268,26.6268 43.1044,63.4075 43.1044,104.013 0,65.2288 -31.265,128.661 -78.1619,191.189 -44.8276,59.7709 -102.56,117.502 -160.288,175.228l0.00236221 0.00236221c-12.7618,12.7618 -33.4559,12.7618 -46.2178,0l-0.180709 -0.185433c-119.162,-119.162 -238.265,-238.331 -238.265,-366.234 0,-40.6051 16.4788,-77.3859 43.1055,-104.013 26.6268,-26.628 63.4087,-43.1055 104.013,-43.1055 53.5548,0 87.0036,18.5256 114.663,55.5697z"/>
  </g>
 </g>
 <rect class="fil2" width="2048" height="2048"/>
</svg>
